<svg width="48" height="48" viewBox="0 0 48 48" fill="none" xmlns="http://www.w3.org/2000/svg">
<path d="M18.6481 9.93735C20.3067 8.72903 21.136 8.12486 22.022 7.82514C23.3035 7.39162 24.6965 7.39162 25.978 7.82514C26.864 8.12486 27.6933 8.72903 29.3519 9.93735L32.9794 12.5801L36.6049 15.0564C38.3249 16.2312 39.1849 16.8185 39.7598 17.5573C40.5914 18.6258 41.0282 19.9391 40.9986 21.2824C40.9781 22.211 40.6363 23.1817 39.9526 25.1232L38.529 29.1657L37.215 33.308C36.5983 35.2519 36.29 36.2239 35.7509 36.98C34.9712 38.0736 33.838 38.878 32.5341 39.2634C31.6327 39.5299 30.5936 39.5144 28.5154 39.4835L24 39.4162L19.4846 39.4835C17.4064 39.5144 16.3673 39.5299 15.4659 39.2634C14.162 38.878 13.0288 38.0736 12.2491 36.98C11.71 36.2239 11.4017 35.2519 10.785 33.308L9.47101 29.1657L8.04741 25.1232C7.36372 23.1817 7.02187 22.211 7.00141 21.2824C6.97182 19.9391 7.40855 18.6258 8.24017 17.5573C8.8151 16.8185 9.67508 16.2312 11.395 15.0564L15.0206 12.5801L18.6481 9.93735Z" fill="#6750A4"/>
</svg>
