<svg width="48" height="48" viewBox="0 0 48 48" fill="none" xmlns="http://www.w3.org/2000/svg">
<path d="M27.8729 10.6207C33.8872 8.00862 39.9914 14.1128 37.3793 20.1271L36.9474 21.1214C36.1499 22.9576 36.1499 25.0424 36.9474 26.8786L37.3793 27.8729C39.9914 33.8872 33.8872 39.9914 27.8729 37.3793L26.8786 36.9474C25.0424 36.1499 22.9576 36.1499 21.1214 36.9474L20.1271 37.3793C14.1128 39.9914 8.00862 33.8872 10.6207 27.8729L11.0526 26.8786C11.8501 25.0424 11.8501 22.9576 11.0526 21.1214L10.6207 20.1271C8.00862 14.1128 14.1128 8.00862 20.1271 10.6207L21.1214 11.0526C22.9576 11.8501 25.0424 11.8501 26.8786 11.0526L27.8729 10.6207Z" fill="#6750A4"/>
</svg>
