<svg width="48" height="48" viewBox="0 0 48 48" fill="none" xmlns="http://www.w3.org/2000/svg">
<path d="M33.1856 11.1238C34.2431 11.1956 34.7718 11.2315 35.1991 11.4184C35.8175 11.6889 36.3111 12.1825 36.5816 12.8009C36.7685 13.2282 36.8044 13.7569 36.8762 14.8144L37.0402 17.2275C37.0693 17.6552 37.0838 17.869 37.1303 18.0733C37.1975 18.3684 37.3142 18.6501 37.4754 18.9063C37.5869 19.0836 37.7279 19.2451 38.0097 19.5681L39.6001 21.3903C40.297 22.1889 40.6455 22.5881 40.8155 23.0225C41.0615 23.6509 41.0615 24.3491 40.8155 24.9775C40.6455 25.4119 40.297 25.8111 39.6001 26.6097L38.0097 28.4319C37.7279 28.7549 37.5869 28.9164 37.4754 29.0937C37.3142 29.3499 37.1975 29.6316 37.1303 29.9267C37.0838 30.131 37.0693 30.3448 37.0402 30.7725L36.8762 33.1856C36.8044 34.2431 36.7685 34.7718 36.5816 35.1991C36.3111 35.8175 35.8175 36.3111 35.1991 36.5816C34.7718 36.7685 34.2431 36.8044 33.1856 36.8762L30.7725 37.0402C30.3448 37.0693 30.131 37.0838 29.9267 37.1303C29.6316 37.1975 29.3499 37.3142 29.0937 37.4754C28.9164 37.5869 28.7549 37.7279 28.4319 38.0097L26.6097 39.6001C25.8111 40.297 25.4119 40.6455 24.9775 40.8155C24.3491 41.0615 23.6509 41.0615 23.0225 40.8155C22.5881 40.6455 22.1889 40.297 21.3903 39.6001L19.5681 38.0097C19.2451 37.7279 19.0836 37.5869 18.9063 37.4754C18.6501 37.3142 18.3684 37.1975 18.0733 37.1303C17.869 37.0838 17.6552 37.0693 17.2275 37.0402L14.8144 36.8762C13.7569 36.8044 13.2282 36.7685 12.8009 36.5816C12.1825 36.3111 11.6889 35.8175 11.4184 35.1991C11.2315 34.7718 11.1956 34.2431 11.1238 33.1856L10.9598 30.7725C10.9307 30.3448 10.9162 30.131 10.8697 29.9267C10.8025 29.6316 10.6858 29.3499 10.5246 29.0937C10.4131 28.9164 10.2721 28.7549 9.99027 28.4319L8.3999 26.6097C7.703 25.8111 7.35454 25.4119 7.18452 24.9775C6.93849 24.3491 6.93849 23.6509 7.18452 23.0225C7.35454 22.5881 7.703 22.1889 8.3999 21.3903L9.99027 19.5681C10.2721 19.2451 10.4131 19.0836 10.5246 18.9063C10.6858 18.6501 10.8025 18.3684 10.8697 18.0733C10.9162 17.869 10.9307 17.6552 10.9598 17.2275L11.1238 14.8144C11.1956 13.7569 11.2315 13.2282 11.4184 12.8009C11.6889 12.1825 12.1825 11.6889 12.8009 11.4184C13.2282 11.2315 13.7569 11.1956 14.8144 11.1238L17.2275 10.9598C17.6552 10.9307 17.869 10.9162 18.0733 10.8697C18.3684 10.8025 18.6501 10.6858 18.9063 10.5246C19.0836 10.4131 19.2451 10.2721 19.5681 9.99027L21.3903 8.3999C22.1889 7.703 22.5881 7.35454 23.0225 7.18452C23.6509 6.93849 24.3491 6.93849 24.9775 7.18452C25.4119 7.35454 25.8111 7.703 26.6097 8.3999L28.4319 9.99027C28.7549 10.2721 28.9164 10.4131 29.0937 10.5246C29.3499 10.6858 29.6316 10.8025 29.9267 10.8697C30.131 10.9162 30.3448 10.9307 30.7725 10.9598L33.1856 11.1238Z" fill="#6750A4"/>
</svg>
