<?xml version="1.0" standalone="no"?><!DOCTYPE svg PUBLIC "-//W3C//DTD SVG 1.1//EN" "http://www.w3.org/Graphics/SVG/1.1/DTD/svg11.dtd"><svg t="1753408829268" class="icon" viewBox="0 0 1024 1024" version="1.1" xmlns="http://www.w3.org/2000/svg" p-id="1651" xmlns:xlink="http://www.w3.org/1999/xlink" width="128" height="128"><path d="M256 192a42.666667 42.666667 0 0 1 42.666667-42.666667h554.666666a42.666667 42.666667 0 1 1 0 85.333334H298.666667a42.666667 42.666667 0 0 1-42.666667-42.666667z m-128 128a42.666667 42.666667 0 0 1 42.666667-42.666667h597.333333a42.666667 42.666667 0 1 1 0 85.333334H170.666667a42.666667 42.666667 0 0 1-42.666667-42.666667z m170.666667 128a42.666667 42.666667 0 0 1 42.666666-42.666667h512a42.666667 42.666667 0 1 1 0 85.333334H341.333333a42.666667 42.666667 0 0 1-42.666666-42.666667z m-128 128a42.666667 42.666667 0 0 1 42.666666-42.666667h554.666667a42.666667 42.666667 0 1 1 0 85.333334H213.333333a42.666667 42.666667 0 0 1-42.666666-42.666667z m128 128a42.666667 42.666667 0 0 1 42.666666-42.666667h298.666667a42.666667 42.666667 0 1 1 0 85.333334H341.333333a42.666667 42.666667 0 0 1-42.666666-42.666667z m128 128a42.666667 42.666667 0 0 1 42.666666-42.666667h128a42.666667 42.666667 0 1 1 0 85.333334h-128a42.666667 42.666667 0 0 1-42.666666-42.666667z" p-id="1652"></path></svg>